# xmcd
#
# Track frame offsets:
#	150
#	19752
#	40079
#	62836
#	85914
#	102475
#	120259
#	141064
#	159466
#	182401
#
# Disc length: 2758 seconds
#
# Revision: 1
# Processed by: cddbd v1.5PL3 Copyright (c) Steve Scherf et al.
# Submitted via: EasyCDDAExtractor 7.0.5.4
#
DISCID=770ac40a
DTITLE=The Illegal Eagles - The Path Home
DYEAR=2004
DGENRE=Classic Rock
TTITLE0=Running Man
TTITLE1=Wild West
TTITLE2=Through The Darkness
TTITLE3=Where Is The Love
TTITLE4=Call Me
TTITLE5=When You Dance
TTITLE6=With Me Now
TTITLE7=Good Morning America
TTITLE8=Keep It To Myself
TTITLE9=The Path Home
EXTD=
EXTT0=
EXTT1=
EXTT2=
EXTT3=
EXTT4=
EXTT5=
EXTT6=
EXTT7=
EXTT8=
EXTT9=
PLAYORDER=
